<svg width="37" height="37" viewBox="0 0 37 37" fill="none" xmlns="http://www.w3.org/2000/svg">
<rect width="37" height="37" rx="3" fill="#047BC1" fill-opacity="0.64"/>
<path d="M13.0801 27V11.28H17.9041C21.3921 11.28 23.1361 12.64 23.1361 15.36C23.1361 16.24 22.9121 17 22.4641 17.64C22.0161 18.28 21.4081 18.68 20.6401 18.84C21.5361 18.968 22.2321 19.36 22.7281 20.016C23.2401 20.656 23.5041 21.496 23.5201 22.536C23.5201 25.512 21.5761 27 17.6881 27H13.0801ZM18.0481 24.84C19.1041 24.84 19.8561 24.608 20.3041 24.144C20.7521 23.68 20.9761 23.064 20.9761 22.296C20.9761 21.512 20.7281 20.944 20.2321 20.592C19.7521 20.24 18.9841 20.064 17.9281 20.064H15.5761V24.84H18.0481ZM20.6881 15.552C20.6881 14.144 19.8161 13.44 18.0721 13.44H15.5761V17.904H17.8801C19.7521 17.904 20.6881 17.12 20.6881 15.552Z" fill="white"/>
</svg>
