<svg width="37" height="37" viewBox="0 0 37 37" fill="none" xmlns="http://www.w3.org/2000/svg">
<rect width="37" height="37" rx="3" fill="#047BC1" fill-opacity="0.64"/>
<path d="M12.96 18.984C12.96 13.688 14.896 11.04 18.768 11.04C19.984 11.04 21.232 11.232 22.512 11.616L23.136 11.808V15.288H20.64V13.512C20.064 13.384 19.52 13.304 19.008 13.272H18.768C17.68 13.272 16.864 13.696 16.32 14.544C15.776 15.392 15.504 16.872 15.504 18.984C15.536 21.48 15.824 23.128 16.368 23.928C16.656 24.344 16.984 24.632 17.352 24.792C17.72 24.936 18.192 25.008 18.768 25.008C20.08 25.04 21.392 24.848 22.704 24.432L23.136 26.52C22.608 26.696 21.888 26.856 20.976 27C20.08 27.16 19.336 27.24 18.744 27.24C16.792 27.272 15.336 26.648 14.376 25.368C13.432 24.072 12.96 21.944 12.96 18.984Z" fill="white"/>
</svg>
