<svg width="37" height="37" viewBox="0 0 37 37" fill="none" xmlns="http://www.w3.org/2000/svg">
<rect width="37" height="37" rx="3" fill="#047BC1"/>
<path d="M12.96 17.984C12.96 12.688 14.896 10.04 18.768 10.04C19.984 10.04 21.232 10.232 22.512 10.616L23.136 10.808V14.288H20.64V12.512C20.064 12.384 19.52 12.304 19.008 12.272H18.768C17.68 12.272 16.864 12.696 16.32 13.544C15.776 14.392 15.504 15.872 15.504 17.984C15.536 20.48 15.824 22.128 16.368 22.928C16.656 23.344 16.984 23.632 17.352 23.792C17.72 23.936 18.192 24.008 18.768 24.008C20.08 24.04 21.392 23.848 22.704 23.432L23.136 25.52C22.608 25.696 21.888 25.856 20.976 26C20.08 26.16 19.336 26.24 18.744 26.24C16.792 26.272 15.336 25.648 14.376 24.368C13.432 23.072 12.96 20.944 12.96 17.984Z" fill="white"/>
</svg>
