<svg width="37" height="37" viewBox="0 0 37 37" fill="none" xmlns="http://www.w3.org/2000/svg">
<rect width="37" height="37" rx="3" fill="#047BC1" fill-opacity="0.64"/>
<path d="M12.9121 27V11.28H16.6561C17.9201 11.28 18.9361 11.384 19.7041 11.592C20.4881 11.8 21.1521 12.192 21.6961 12.768C22.2401 13.344 22.6241 14.144 22.8481 15.168C23.0721 16.176 23.1841 17.616 23.1841 19.488C23.1841 21.344 22.9521 22.84 22.4881 23.976C22.0401 25.112 21.3601 25.904 20.4481 26.352C19.5361 26.784 18.2561 27 16.6081 27H12.9121ZM19.6801 23.808C20.0481 23.392 20.2961 22.824 20.4241 22.104C20.5681 21.368 20.6401 20.376 20.6401 19.128C20.6401 17.864 20.5841 16.872 20.4721 16.152C20.3601 15.432 20.1201 14.864 19.7521 14.448C19.4001 14.016 18.9601 13.744 18.4321 13.632C17.9041 13.504 17.1521 13.44 16.1761 13.44H15.4081V24.84H16.1281C17.0561 24.84 17.7841 24.776 18.3121 24.648C18.8561 24.504 19.3121 24.224 19.6801 23.808Z" fill="white"/>
</svg>
