<svg width="37" height="37" viewBox="0 0 37 37" fill="none" xmlns="http://www.w3.org/2000/svg">
<rect width="37" height="37" rx="3" fill="#047BC1"/>
<path d="M12.9121 26V10.28H16.6561C17.9201 10.28 18.9361 10.384 19.7041 10.592C20.4881 10.8 21.1521 11.192 21.6961 11.768C22.2401 12.344 22.6241 13.144 22.8481 14.168C23.0721 15.176 23.1841 16.616 23.1841 18.488C23.1841 20.344 22.9521 21.84 22.4881 22.976C22.0401 24.112 21.3601 24.904 20.4481 25.352C19.5361 25.784 18.2561 26 16.6081 26H12.9121ZM19.6801 22.808C20.0481 22.392 20.2961 21.824 20.4241 21.104C20.5681 20.368 20.6401 19.376 20.6401 18.128C20.6401 16.864 20.5841 15.872 20.4721 15.152C20.3601 14.432 20.1201 13.864 19.7521 13.448C19.4001 13.016 18.9601 12.744 18.4321 12.632C17.9041 12.504 17.1521 12.44 16.1761 12.44H15.4081V23.84H16.1281C17.0561 23.84 17.7841 23.776 18.3121 23.648C18.8561 23.504 19.3121 23.224 19.6801 22.808Z" fill="white"/>
</svg>
