<svg width="220" height="56" viewBox="0 0 220 56" fill="none" xmlns="http://www.w3.org/2000/svg">
<path fill-rule="evenodd" clip-rule="evenodd" d="M79.051 33.8437V20.7047C79.051 17.2575 77.1522 15.1666 74.3321 15.1949C71.9587 15.1949 70.3393 16.3251 68.9711 18.2465C68.273 16.2968 66.6815 15.1949 64.6152 15.1949C62.3256 15.1949 60.7061 16.2686 59.4217 18.077L59.0867 15.7035H55.3172V33.8437H59.673V21.2416C60.6782 19.5745 61.5717 18.5008 63.1074 18.5008C64.1406 18.5008 65.062 19.1507 65.062 21.4111V33.8437H69.3899V21.2416C70.3672 19.5745 71.2886 18.5008 72.7685 18.5008C73.8295 18.5008 74.723 19.1507 74.723 21.4111V33.8437H79.051ZM81.3405 41.3031C86.6736 40.8793 89.2983 38.1385 90.6665 33.9001L96.5301 15.6751H92.0626L87.9859 30.905L84.0768 15.6751H79.4418L85.1379 33.8153H86.6177C85.6126 36.3866 84.4398 37.5734 80.8937 38.1102L81.3405 41.3031Z" fill="#009DE2"/>
<path fill-rule="evenodd" clip-rule="evenodd" d="M201.424 20.7895C201.424 19.0941 201.006 17.7379 200.142 16.7489C199.277 15.7317 198.134 15.2513 196.656 15.2513C195.485 15.2513 194.481 15.5056 193.616 16.0142C192.752 16.5229 191.971 17.2858 191.274 18.303C190.912 17.314 190.354 16.5511 189.601 16.0142C188.848 15.4774 187.928 15.2231 186.896 15.2231C184.777 15.2231 183.048 16.212 181.682 18.1334L181.347 15.7599H177.722V34.098H181.738V21.2981C182.073 20.8976 182.336 20.5388 182.567 20.224C182.874 19.8058 183.124 19.4651 183.411 19.2072C183.913 18.7551 184.638 18.529 185.363 18.529C186.673 18.529 187.342 19.518 187.342 21.4676V34.098H191.776V21.2981C192.194 20.3656 192.808 19.6592 193.31 19.2072C193.812 18.7551 194.369 18.529 195.066 18.529C196.377 18.529 196.991 19.518 196.991 21.4676V34.098H201.424V20.7895ZM112.221 41.5292L107.787 41.0489V31.9787C107.397 32.7982 106.532 33.4198 105.696 33.8719C104.859 34.324 103.911 34.55 102.88 34.55C100.677 34.55 98.9757 33.6741 97.8045 31.9505C96.6334 30.2269 96.0478 27.8817 96.0478 24.9148C96.0478 23.0217 96.3545 21.3546 96.9401 19.8853C97.5257 18.416 98.3622 17.2857 99.4776 16.4663C100.565 15.6469 101.876 15.2513 103.381 15.2513C105.222 15.2513 106.811 16.0142 108.15 17.54L108.429 15.7882H112.249V41.5292H112.221ZM106.142 30.6225C106.728 30.2552 107.397 29.6618 107.787 28.8424V20.4787C107.397 19.8288 106.783 19.3484 106.226 19.0376C105.668 18.7268 105.082 18.5573 104.385 18.5573C103.214 18.5573 102.294 19.0941 101.625 20.1396C100.955 21.185 100.621 22.7674 100.621 24.8866C100.621 27.147 100.927 28.7576 101.513 29.7466C102.099 30.7355 102.963 31.2159 104.106 31.2159C104.887 31.1876 105.556 30.9898 106.142 30.6225ZM124.686 31.4984L124.937 34.0979H128.701V15.7599H124.267V28.588C123.459 30.3116 122.092 31.1876 120.698 31.1876C119.917 31.1876 119.443 30.9615 119.081 30.5377C118.746 30.1138 118.635 29.3792 118.635 28.3337V15.7881H114.201V28.8706C114.201 30.6224 114.619 32.0352 115.484 33.0242C116.348 34.0131 117.547 34.5217 119.164 34.5217C120.391 34.5217 121.451 34.2957 122.343 33.7871C123.236 33.2785 124.016 32.5438 124.686 31.4984ZM147.383 24.8865C147.383 21.8914 146.63 19.5462 145.152 17.8226C143.675 16.099 141.583 15.2513 138.962 15.2513C137.205 15.2513 135.7 15.6751 134.417 16.4663C133.134 17.2857 132.13 18.416 131.461 19.857C130.764 21.298 130.429 22.9651 130.429 24.8865C130.429 27.9099 131.182 30.2551 132.688 31.9787C134.166 33.7024 136.257 34.55 138.906 34.55C140.635 34.55 142.141 34.1262 143.424 33.335C144.706 32.5439 145.682 31.4136 146.351 29.9443C147.049 28.475 147.383 26.8079 147.383 24.8865ZM136.006 29.6335C135.365 28.6163 135.03 27.034 135.03 24.8583C135.03 20.6764 136.313 18.5855 138.934 18.5573C140.189 18.5573 141.165 19.0659 141.806 20.0831C142.448 21.1003 142.782 22.6826 142.782 24.83C142.782 26.9775 142.448 28.5598 141.806 29.6053C141.165 30.6507 140.189 31.1594 138.906 31.1594C137.624 31.1594 136.648 30.6507 136.006 29.6335ZM159.039 19.7723L159.067 15.6752C159.067 15.6752 158.481 15.4492 157.84 15.4209C157.115 15.4209 155.972 15.5905 155.163 16.2969C154.354 17.0033 153.713 18.0205 153.295 19.3202L152.876 15.7318H149.196V34.0698H153.629V24.2933C153.629 22.6827 154.41 21.4959 155.024 20.733C155.637 19.9701 156.39 19.5745 157.45 19.5745C157.951 19.5745 158.481 19.6028 159.039 19.7723ZM171.838 34.0979L171.587 31.4984C170.918 32.5438 170.137 33.2785 169.245 33.7871C168.353 34.2957 167.293 34.5217 166.066 34.5217C164.449 34.5217 163.11 34.0131 162.246 33.0242C161.382 32.0352 160.852 30.6224 160.852 28.8706V15.7881H165.285V28.3337C165.285 29.3792 165.536 30.1138 165.871 30.5377C166.234 30.9615 166.847 31.1876 167.6 31.1876C168.994 31.1876 170.082 30.3116 171.309 28.588V15.7599H175.714V34.0979H171.838Z" fill="white"/>
<path fill-rule="evenodd" clip-rule="evenodd" d="M32.0595 3.24148L43.665 14.8603C43.7771 15.3654 43.8612 15.8706 43.8332 16.3758C43.8332 18.0597 43.1604 19.6593 41.9831 20.8381L39.5723 23.2516C39.4882 23.0271 39.32 22.7745 39.0957 22.55L25.9204 9.35959C24.9953 8.43345 23.4535 8.43345 22.5284 9.35959L9.35312 22.55C9.12886 22.7745 8.98869 23.0271 8.87656 23.2516L6.46576 20.8381C4.83987 19.2103 4.30725 16.9371 4.81184 14.8603L16.4173 3.24148C20.7344 -1.08049 27.7425 -1.08049 32.0595 3.24148ZM41.114 39.7817C39.1517 37.5084 36.9372 35.572 33.5172 35.572C30.1071 35.5989 28.523 36.9647 26.3015 38.8803L26.3013 38.8805C26.2036 38.9647 26.1048 39.0499 26.0044 39.1362C26.0044 39.1362 25.3036 39.8659 24.2384 39.8659C23.7899 39.8659 23.1171 39.7536 22.5284 39.1643L18.8842 35.5159C18.8421 35.4738 18.8001 35.4387 18.7581 35.4036L18.758 35.4036L18.758 35.4036C18.716 35.3685 18.6739 35.3334 18.6319 35.2913L5.34443 21.9887C3.88673 20.5293 3.10182 18.5928 3.04575 16.6564C-1.07504 20.9783 -1.01897 27.8542 3.24198 32.092L16.4173 45.2824C18.5758 47.4434 21.4071 48.5098 24.2384 48.5098C27.0697 48.5098 29.901 47.4434 32.0595 45.2824C32.0595 45.2824 32.7042 44.5246 33.7414 44.5246C34.6776 44.5493 35.2674 45.1592 35.8152 45.7258C35.8907 45.8039 35.9654 45.8811 36.0401 45.9559L40.5534 50.6147C40.9458 51.0076 42.1793 51.2882 42.1793 50.2779L42.2353 42.4759C42.2353 42.4759 42.2073 40.9885 41.5906 40.3149L41.114 39.7817ZM45.4308 16.6564C45.3748 18.5928 44.5899 20.5012 43.1322 21.9606L36.1801 28.9206C36.0399 29.1732 36.068 29.4819 36.2642 29.7064L41.3941 34.8423C41.7025 35.151 42.1791 35.151 42.4594 34.8423L45.2066 32.092C49.4675 27.8261 49.5236 21.0064 45.4308 16.6564Z" fill="#047BC1"/>
<path d="M137.487 49.142C137.487 48.5397 137.275 48.0644 136.852 47.716C136.429 47.3627 135.655 47.0292 134.53 46.7156C133.406 46.3971 132.584 46.0512 132.067 45.6779C131.33 45.1504 130.962 44.4585 130.962 43.6025C130.962 42.7713 131.303 42.0969 131.985 41.5793C132.671 41.0567 133.547 40.7954 134.612 40.7954C135.334 40.7954 135.979 40.9348 136.546 41.2135C137.118 41.4922 137.561 41.8804 137.875 42.3781C138.188 42.8758 138.345 43.4308 138.345 44.043H137.42C137.42 43.3014 137.166 42.7066 136.658 42.2587C136.15 41.8058 135.469 41.5793 134.612 41.5793C133.781 41.5793 133.119 41.7659 132.627 42.1392C132.134 42.5075 131.888 42.9903 131.888 43.5875C131.888 44.14 132.109 44.5904 132.552 44.9388C132.995 45.2872 133.704 45.5958 134.68 45.8646C135.655 46.1283 136.394 46.4046 136.897 46.6932C137.4 46.9769 137.778 47.3179 138.032 47.716C138.286 48.1142 138.412 48.5845 138.412 49.127C138.412 49.9831 138.069 50.6699 137.382 51.1875C136.7 51.7052 135.799 51.964 134.68 51.964C133.913 51.964 133.209 51.8271 132.567 51.5534C131.93 51.2796 131.445 50.8964 131.111 50.4037C130.783 49.9109 130.618 49.346 130.618 48.709H131.537C131.537 49.4754 131.823 50.0801 132.395 50.5231C132.968 50.9661 133.729 51.1875 134.68 51.1875C135.526 51.1875 136.205 51.0009 136.718 50.6276C137.23 50.2543 137.487 49.7591 137.487 49.142Z" fill="white"/>
<path d="M148.401 46.9695C148.401 48.0047 148.217 48.908 147.849 49.6795C147.486 50.446 146.966 51.0258 146.289 51.419L148.267 53.1435L147.632 53.7109L145.415 51.7923C145.007 51.9067 144.591 51.964 144.168 51.964C143.342 51.964 142.606 51.7599 141.959 51.3518C141.317 50.9437 140.819 50.3663 140.465 49.6198C140.112 48.8682 139.933 48.0022 139.928 47.0217V45.8048C139.928 44.8144 140.102 43.9384 140.451 43.1769C140.804 42.4105 141.302 41.8232 141.944 41.4151C142.586 41.002 143.322 40.7954 144.154 40.7954C145 40.7954 145.744 40.9995 146.386 41.4076C147.028 41.8157 147.523 42.4005 147.871 43.162C148.225 43.9235 148.401 44.802 148.401 45.7974V46.9695ZM147.483 45.7899C147.483 44.4809 147.187 43.4557 146.595 42.7141C146.002 41.9725 145.189 41.6017 144.154 41.6017C143.148 41.6017 142.344 41.975 141.742 42.7215C141.145 43.4631 140.846 44.5008 140.846 45.8347V46.9695C140.846 48.2585 141.142 49.2813 141.735 50.0378C142.332 50.7894 143.143 51.1651 144.168 51.1651C145.204 51.1651 146.015 50.7944 146.602 50.0528C147.19 49.3112 147.483 48.276 147.483 46.9471V45.7899Z" fill="white"/>
<path d="M152.47 49.9557L152.605 50.65L152.784 49.9184L154.725 43.7369H155.486L157.405 49.8661L157.614 50.7172L157.786 49.9333L159.443 43.7369H160.369L158.017 51.8147H157.256L155.18 45.4092L155.083 44.9687L154.986 45.4166L152.948 51.8147H152.187L149.842 43.7369H150.761L152.47 49.9557Z" fill="white"/>
<path d="M162.952 45.1031C163.246 44.6203 163.621 44.247 164.079 43.9832C164.537 43.7194 165.037 43.5875 165.58 43.5875C166.446 43.5875 167.09 43.8314 167.513 44.3192C167.936 44.8069 168.15 45.5386 168.155 46.5141V51.8147H167.267V46.5066C167.262 45.7849 167.108 45.2474 166.804 44.894C166.506 44.5407 166.025 44.364 165.363 44.364C164.811 44.364 164.321 44.5382 163.893 44.8866C163.47 45.23 163.156 45.6953 162.952 46.2826V51.8147H162.064V40.3475H162.952V45.1031Z" fill="white"/>
<path d="M173.583 51.964C172.896 51.964 172.274 51.7947 171.717 51.4563C171.164 51.1179 170.734 50.6475 170.425 50.0453C170.116 49.4381 169.962 48.7587 169.962 48.0072V47.6862C169.962 46.9097 170.111 46.2105 170.41 45.5883C170.714 44.9662 171.134 44.4784 171.672 44.1251C172.209 43.7667 172.792 43.5875 173.419 43.5875C174.399 43.5875 175.176 43.9235 175.748 44.5954C176.325 45.2623 176.614 46.1756 176.614 47.3353V47.8355H170.851V48.0072C170.851 48.923 171.112 49.687 171.634 50.2991C172.162 50.9063 172.824 51.2099 173.62 51.2099C174.098 51.2099 174.519 51.1228 174.882 50.9486C175.25 50.7744 175.584 50.4957 175.882 50.1125L176.442 50.538C175.785 51.4887 174.832 51.964 173.583 51.964ZM173.419 44.349C172.747 44.349 172.179 44.5954 171.717 45.0881C171.259 45.5809 170.98 46.2428 170.88 47.074H175.726V46.9769C175.701 46.2005 175.479 45.5684 175.061 45.0807C174.643 44.5929 174.096 44.349 173.419 44.349Z" fill="white"/>
<path d="M181.482 51.964C180.795 51.964 180.173 51.7947 179.615 51.4563C179.063 51.1179 178.632 50.6475 178.324 50.0453C178.015 49.4381 177.861 48.7587 177.861 48.0072V47.6862C177.861 46.9097 178.01 46.2105 178.309 45.5883C178.612 44.9662 179.033 44.4784 179.57 44.1251C180.108 43.7667 180.69 43.5875 181.317 43.5875C182.298 43.5875 183.074 43.9235 183.647 44.5954C184.224 45.2623 184.513 46.1756 184.513 47.3353V47.8355H178.749V48.0072C178.749 48.923 179.01 49.687 179.533 50.2991C180.061 50.9063 180.723 51.2099 181.519 51.2099C181.997 51.2099 182.417 51.1228 182.781 50.9486C183.149 50.7744 183.482 50.4957 183.781 50.1125L184.341 50.538C183.684 51.4887 182.731 51.964 181.482 51.964ZM181.317 44.349C180.645 44.349 180.078 44.5954 179.615 45.0881C179.157 45.5809 178.879 46.2428 178.779 47.074H183.624V46.9769C183.599 46.2005 183.378 45.5684 182.96 45.0807C182.542 44.5929 181.994 44.349 181.317 44.349Z" fill="white"/>
<path d="M187.387 51.0382H192.755V51.8147H186.461V40.9447H187.387V51.0382Z" fill="white"/>
<path d="M199.153 49.7616C199.153 49.3187 198.973 48.9628 198.615 48.694C198.262 48.4253 197.727 48.2162 197.01 48.0669C196.293 47.9126 195.736 47.7384 195.338 47.5443C194.945 47.3452 194.651 47.1039 194.457 46.8202C194.268 46.5365 194.173 46.193 194.173 45.7899C194.173 45.1528 194.439 44.6278 194.972 44.2147C195.504 43.7966 196.186 43.5875 197.018 43.5875C197.918 43.5875 198.64 43.8115 199.183 44.2595C199.73 44.7024 200.004 45.2822 200.004 45.9989H199.108C199.108 45.5261 198.909 45.1329 198.511 44.8194C198.117 44.5058 197.62 44.349 197.018 44.349C196.43 44.349 195.957 44.4809 195.599 44.7447C195.246 45.0035 195.069 45.342 195.069 45.76C195.069 46.1632 195.216 46.4767 195.509 46.7007C195.808 46.9197 196.348 47.1213 197.129 47.3054C197.916 47.4896 198.503 47.6862 198.891 47.8952C199.285 48.1042 199.576 48.3556 199.765 48.6492C199.954 48.9429 200.049 49.2987 200.049 49.7168C200.049 50.3987 199.772 50.9437 199.22 51.3518C198.672 51.7599 197.956 51.964 197.07 51.964C196.129 51.964 195.365 51.7375 194.778 51.2846C194.196 50.8267 193.904 50.2494 193.904 49.5526H194.8C194.835 50.0752 195.054 50.4833 195.457 50.7769C195.865 51.0656 196.403 51.2099 197.07 51.2099C197.692 51.2099 198.195 51.0731 198.578 50.7993C198.961 50.5256 199.153 50.1797 199.153 49.7616Z" fill="white"/>
</svg>
